HIERARCHY
ROOT Hips
{
	OFFSET 0.000000 0.000000 0.000000 
	CHANNELS 6 Xposition Yposition Zposition Zrotation Yrotation Xrotation
	JOINT LeftUpLeg
	{
		OFFSET 1.363060 -1.794630 0.839290 
		CHANNELS 3 Zrotation Yrotation Xrotation
		JOINT LeftLeg
		{
			OFFSET 2.448110 -6.726130 0.000000 
			CHANNELS 3 Zrotation Yrotation Xrotation
			JOINT LeftFoot
			{
				OFFSET 2.562200 -7.039590 0.000000 
				CHANNELS 3 Zrotation Yrotation Xrotation
				JOINT LeftToeBase
				{
					OFFSET 0.157640 -0.433110 2.322550 
					CHANNELS 3 Zrotation Yrotation Xrotation
					End Site
					{
						OFFSET 0.000000 0.000000 0.000000 
					}
				}
			}
		}
	}
	JOINT RightUpLeg
	{
		OFFSET -1.305520 -1.794630 0.839290 
		CHANNELS 3 Zrotation Yrotation Xrotation
		JOINT RightLeg
		{
			OFFSET -2.542530 -6.985550 0.000000 
			CHANNELS 3 Zrotation Yrotation Xrotation
			JOINT RightFoot
			{
				OFFSET -2.568260 -7.056230 0.000000 
				CHANNELS 3 Zrotation Yrotation Xrotation
				JOINT RightToeBase
				{
					OFFSET -0.164730 -0.452590 2.363150 
					CHANNELS 3 Zrotation Yrotation Xrotation
					End Site
					{
						OFFSET 0.000000 0.000000 0.000000 
					}
				}
			}
		}
	}
	JOINT Spine
	{
		OFFSET 0.028270 2.035590 -0.193380 
		CHANNELS 3 Zrotation Yrotation Xrotation
		JOINT Spine1
		{
			OFFSET 0.056720 2.048850 -0.042750 
			CHANNELS 3 Zrotation Yrotation Xrotation
			JOINT Neck1
			{
				OFFSET -0.054170 1.746240 0.172020 
				CHANNELS 3 Zrotation Yrotation Xrotation
				JOINT Head
				{
					OFFSET 0.104070 1.761360 -0.123970 
					CHANNELS 3 Zrotation Yrotation Xrotation
					End Site
					{
						OFFSET 0.000000 0.000000 0.000000 
					}
				}
			}
			JOINT LeftArm
			{
				OFFSET 3.362410 1.200890 -0.311210 
				CHANNELS 3 Zrotation Yrotation Xrotation
				JOINT LeftForeArm
				{
					OFFSET 4.983000 -0.000000 -0.000000 
					CHANNELS 3 Zrotation Yrotation Xrotation
					JOINT LeftHand
					{
						OFFSET 3.483560 -0.000000 -0.000000 
						CHANNELS 3 Zrotation Yrotation Xrotation
						JOINT LeftHandIndex1
						{
							OFFSET 0.715260 -0.000000 -0.000000 
							CHANNELS 3 Zrotation Yrotation Xrotation
							End Site
							{
								OFFSET 0.000000 0.000000 0.000000 
							}
						}
					}
				}
			}
			JOINT RightArm
			{
				OFFSET -3.136600 1.374050 -0.404650 
				CHANNELS 3 Zrotation Yrotation Xrotation
				JOINT RightForeArm
				{
					OFFSET -5.241900 -0.000000 -0.000000 
					CHANNELS 3 Zrotation Yrotation Xrotation
					JOINT RightHand
					{
						OFFSET -3.444170 -0.000000 -0.000000 
						CHANNELS 3 Zrotation Yrotation Xrotation
						JOINT RightHandIndex1
						{
							OFFSET -0.622530 -0.000000 -0.000000 
							CHANNELS 3 Zrotation Yrotation Xrotation
							End Site
							{
								OFFSET 0.000000 0.000000 0.000000 
							}
						}
					}
				}
			}
		}
	}
}
MOTION
Frames: 15
Frame Time: 0.041667
-0.776362 22.156020 -7.638013 -1.272718 3.429859 5.628189 -8.992723 -2.556199 -22.467631 12.128094 18.549581 65.386060 1.069989 1.451364 28.691381 0.112400 -2.161400 -5.951800 11.483472 -0.780784 -42.567542 -5.388558 -15.486499 44.971925 0.743403 -6.298589 16.699591 -1.462500 7.643000 -21.634900 1.092629 -2.959021 -3.737480 3.350446 -1.796910 -4.900895 2.754083 1.420057 5.879039 -0.802000 0.484400 7.433400 -80.551542 15.551870 55.513885 120.422288 -54.661019 -88.177678 -0.028785 0.120646 -11.086712 -7.125000 0.000000 0.000000 90.448906 -25.441600 23.226455 -87.088974 59.559138 -65.520731 1.857652 0.459924 -3.435169 7.125000 0.000000 0.000000 
-0.828276 22.210509 -7.172711 -2.086891 3.451754 4.950427 -7.962302 -2.189318 -24.415582 13.698776 19.122812 69.892453 0.969832 0.838516 26.499426 0.095800 -1.995900 -5.494300 12.770712 -0.965025 -40.799658 -5.395398 -15.359007 45.124572 1.011377 -6.714137 15.388006 -1.314300 7.261400 -20.492100 1.154175 -2.405593 -3.701147 3.332617 -1.525673 -5.132759 2.772660 1.080481 5.829438 -0.771300 0.315900 7.387200 -80.693036 16.322673 54.716760 117.557671 -55.582255 -85.931441 -0.053229 0.113166 -10.548395 -7.125000 0.000000 0.000000 90.784276 -24.040914 23.026114 -86.192989 59.362216 -64.803302 1.857182 0.500367 -3.575176 7.125000 0.000000 0.000000 
-0.882658 22.250303 -6.709125 -2.921248 3.402686 4.337237 -6.814647 -1.792594 -26.505765 15.197350 19.584399 74.188838 0.920179 0.179506 24.264153 0.086000 -1.891600 -5.206200 14.075075 -1.027898 -39.121891 -5.464010 -15.289537 45.469394 1.347763 -7.235698 13.634120 -1.266400 7.133200 -20.110500 1.214377 -1.817387 -3.678199 3.320964 -1.236411 -5.392408 2.795978 0.736745 5.772985 -0.743900 0.146600 7.341100 -80.770725 17.146587 53.915799 114.921610 -56.340172 -83.867454 -0.081464 0.099172 -10.473290 -7.125000 0.000000 0.000000 91.002239 -22.676663 22.979925 -85.574001 59.191962 -64.302128 1.858755 0.538277 -3.716588 7.125000 0.000000 0.000000 
-0.938434 22.277118 -6.246934 -3.737480 3.315062 3.819089 -5.608281 -1.404131 -28.711960 16.575573 19.940149 78.134256 0.927691 -0.531759 22.127476 0.078300 -1.804900 -4.966800 15.361691 -1.019168 -37.522223 -5.549363 -15.240942 45.847445 1.742821 -7.898578 11.677624 -1.311400 7.253700 -20.469200 1.271182 -1.217510 -3.668539 3.311611 -0.940450 -5.655491 2.824519 0.396324 5.705096 -0.717500 -0.020100 7.293600 -80.774412 18.033609 53.123544 112.651170 -56.935612 -82.099216 -0.109935 0.079199 -10.865008 -7.125000 0.000000 0.000000 91.095990 -21.334694 23.094951 -85.253507 59.057229 -64.040111 1.863070 0.574674 -3.875687 7.125000 0.000000 0.000000 
-0.994211 22.292564 -5.785922 -4.511291 3.213387 3.422388 -4.400905 -1.064109 -31.035440 17.812981 20.207743 81.670540 0.988258 -1.306135 20.129772 0.075200 -1.769600 -4.869300 16.618287 -0.983408 -36.032049 -5.635826 -15.203358 46.224106 2.149784 -8.612699 9.664869 -1.419100 7.533600 -21.306100 1.322248 -0.623510 -3.672215 3.293343 -0.645491 -5.903689 2.853261 0.063479 5.620389 -0.694500 -0.182800 7.242400 -80.683727 19.002449 52.354661 110.844300 -57.385451 -80.708551 -0.134218 0.056312 -11.586097 -7.125000 0.000000 0.000000 91.065385 -20.003049 23.367873 -85.236330 58.962581 -64.024596 1.869905 0.607762 -4.035926 7.125000 0.000000 0.000000 
-1.048914 22.298356 -5.326090 -5.218655 3.115773 3.166100 -3.248435 -0.813776 -33.479782 18.893828 20.406513 84.750230 1.092169 -2.132354 18.329372 0.077300 -1.794100 -4.936900 17.823237 -0.959766 -34.669847 -5.713946 -15.169650 46.572783 2.528226 -9.303231 7.764936 -1.520700 7.786800 -22.068500 1.364881 -0.050799 -3.688804 3.257633 -0.357954 -6.122535 2.878582 -0.258278 5.515335 -0.675400 -0.340400 7.186100 -80.482080 20.058830 51.628486 109.565334 -57.711096 -79.748103 -0.151070 0.033023 -12.373324 -7.125000 0.000000 0.000000 90.914430 -18.679266 23.787483 -85.567074 58.915132 -64.295525 1.878170 0.638934 -4.190562 7.125000 0.000000 0.000000 
-1.102009 22.297176 -4.866258 -5.845253 3.061127 3.043313 -2.185362 -0.704821 -36.013427 19.799950 20.557061 87.324554 1.233129 -3.015818 16.780002 0.083600 -1.864500 -5.131200 18.956535 -0.996560 -33.418608 -5.774657 -15.133830 46.873991 2.853831 -9.910182 5.946180 -1.607400 7.995400 -22.700000 1.397444 0.477454 -3.716179 3.197588 -0.088396 -6.302238 2.902055 -0.567503 5.389995 -0.656600 -0.492400 7.124000 -80.155271 21.210311 50.960617 108.820917 -57.937684 -79.223893 -0.157352 0.013365 -12.946042 -7.125000 0.000000 0.000000 90.663911 -17.372290 24.323470 -86.275028 58.917252 -64.877588 1.884862 0.663325 -4.299453 7.125000 0.000000 0.000000 
-1.152100 22.290741 -4.407070 -6.375661 3.040870 3.052057 -1.249872 -0.750545 -38.633632 20.519063 20.679220 89.356477 1.395453 -3.922416 15.546084 0.092800 -1.965100 -5.409200 19.986782 -1.104643 -32.257426 -5.805580 -15.087385 47.095073 3.103813 -10.380197 4.202689 -1.679400 8.163700 -23.212300 1.416672 0.960125 -3.753490 3.105796 0.163286 -6.444329 2.924549 -0.860388 5.248343 -0.634200 -0.637200 7.059600 -79.696393 22.453709 50.371452 108.591846 -58.082704 -79.118040 -0.151334 -0.000853 -13.105691 -7.125000 0.000000 0.000000 90.342614 -16.097370 24.937999 -87.388922 58.965624 -65.790954 1.888836 0.676963 -4.332720 7.125000 0.000000 0.000000 
-1.198974 22.282696 -3.947882 -6.791367 3.022558 3.171000 -0.472768 -0.927287 -41.297853 21.031830 20.790376 90.791696 1.568924 -4.833365 14.623793 0.106000 -2.099100 -5.779600 20.874838 -1.279943 -31.130755 -5.792097 -15.019146 47.184628 3.277321 -10.712296 2.547349 -1.749200 8.322800 -23.698800 1.418142 1.408308 -3.797803 2.978498 0.402224 -6.554538 2.951981 -1.139090 5.097421 -0.601500 -0.775600 6.997300 -79.103175 23.779833 49.881771 108.829033 -58.158407 -79.387258 -0.132718 -0.009982 -12.776891 -7.125000 0.000000 0.000000 89.991594 -14.884648 25.589630 -88.962731 59.052907 -67.070942 1.888718 0.676232 -4.279651 7.125000 0.000000 0.000000 
-1.241986 22.278620 -3.487943 -7.083019 3.038481 3.359764 0.133249 -1.257832 -43.913235 21.316764 20.905710 91.568848 1.746193 -5.726026 14.006621 0.123500 -2.265900 -6.241100 21.587176 -1.562664 -29.984406 -5.717102 -14.916331 47.083829 3.363329 -10.880104 1.023660 -1.817800 8.475800 -24.168800 1.401715 1.808950 -3.845284 2.814789 0.621336 -6.639737 2.984358 -1.406297 4.940552 -0.557800 -0.908700 6.937700 -78.382918 25.165613 49.518649 109.476538 -58.168761 -79.980712 -0.102864 -0.014687 -12.031904 -7.125000 0.000000 0.000000 89.647081 -13.772905 26.240502 -91.050450 59.160606 -68.747090 1.883957 0.655995 -4.157256 7.125000 0.000000 0.000000 
-1.281458 22.283340 -3.026395 -7.234927 3.072497 3.602360 0.547440 -1.705231 -46.406065 21.357263 21.034095 91.639674 1.922020 -6.575365 13.661353 0.144400 -2.449100 -6.748500 22.089425 -1.946528 -28.784098 -5.567677 -14.767305 46.742513 3.374171 -10.907090 -0.386949 -1.869400 8.588700 -24.516900 1.366280 2.170957 -3.891786 2.621356 0.824841 -6.694924 3.018148 -1.667224 4.781937 -0.507300 -1.039100 6.881700 -77.551396 26.574145 49.299608 110.478160 -58.112428 -80.846112 -0.063505 -0.017193 -11.081124 -7.125000 0.000000 0.000000 89.341635 -12.786518 26.870837 -93.651932 59.250942 -70.800401 1.874265 0.613635 -4.009887 7.125000 0.000000 0.000000 
-1.317498 22.299322 -2.562487 -7.247937 3.115315 3.877006 0.766117 -2.220017 -48.683383 21.140891 21.176253 90.974101 2.100501 -7.386768 13.574717 0.161900 -2.592700 -7.146800 22.374716 -2.431557 -27.501387 -5.344077 -14.564125 46.124698 3.384109 -10.955580 -1.583298 -1.956600 8.775100 -25.094200 1.312745 2.504239 -3.933798 2.409108 1.017291 -6.716616 3.061948 -1.927070 4.629445 -0.443400 -1.168500 6.833600 -76.633710 27.965550 49.234158 111.784884 -57.983003 -81.937222 -0.017122 -0.020718 -10.200091 -7.125000 0.000000 0.000000 89.092763 -11.954986 27.485549 -96.774668 59.272398 -73.216821 1.860196 0.550327 -3.896013 7.125000 0.000000 0.000000 
-1.350535 22.326888 -2.095576 -7.139356 3.141471 4.172496 0.797504 -2.731891 -50.677763 20.667775 21.322138 89.578024 2.287194 -8.165412 13.661291 0.185900 -2.777000 -7.658400 22.458630 -2.983070 -26.121557 -5.048140 -14.303264 45.233374 3.375011 -10.970862 -2.508781 -2.041100 8.951200 -25.642700 1.243543 2.828186 -3.967212 2.186040 1.208397 -6.697167 3.107392 -2.196471 4.478027 -0.376100 -1.302500 6.786100 -75.660237 29.295843 49.335879 113.321280 -57.778736 -83.187217 0.032307 -0.025746 -9.608347 -7.125000 0.000000 0.000000 88.902749 -11.287710 28.104321 -100.327208 59.160786 -75.912776 1.843451 0.467451 -3.869500 7.125000 0.000000 0.000000 
-1.381319 22.365824 -1.624482 -6.936642 3.172086 4.462810 0.664201 -3.202118 -52.300256 19.940067 21.453213 87.477774 2.490111 -8.934984 13.937569 0.210600 -2.954800 -8.153000 22.374281 -3.587673 -24.632215 -4.692259 -13.985389 44.091575 3.377585 -11.010973 -3.133134 -2.132000 9.135800 -26.220900 1.163721 3.142254 -3.989386 1.966437 1.397830 -6.635100 3.157867 -2.484047 4.329900 -0.305500 -1.444600 6.737900 -74.663520 30.534909 49.601914 115.012338 -57.500999 -84.532682 0.081545 -0.032819 -9.453952 -7.125000 0.000000 0.000000 88.758423 -10.792520 28.758724 -104.187874 58.860301 -78.795121 1.826238 0.370755 -3.977182 7.125000 0.000000 0.000000 
-1.410494 22.414521 -1.148453 -6.680760 3.195041 4.739465 0.394465 -3.559048 -53.513047 18.968632 21.541786 84.728199 2.718472 -9.728738 14.428116 0.235600 -3.123900 -8.623800 22.170859 -4.189092 -23.033205 -4.292614 -13.615487 42.740246 3.401429 -11.088694 -3.426051 -2.235400 9.340100 -26.865200 1.077252 3.458598 -3.999061 1.755054 1.591213 -6.526164 3.212575 -2.791513 4.187874 -0.235200 -1.595400 6.690100 -73.680084 31.655347 50.004190 116.777016 -57.158677 -85.910077 0.128454 -0.041760 -9.774347 -7.125000 0.000000 0.000000 88.640218 -10.454089 29.481048 -108.165743 58.343278 -81.730513 1.811003 0.266484 -4.211143 7.125000 0.000000 0.000000 
